<svg width="720" height="720" viewBox="0 0 360 360" fill="none" xmlns="http://www.w3.org/2000/svg">
<g clip-path="url(#clip0_4_54)">
<rect width="360" height="360" fill="#F5F6F7"/>
<g clip-path="url(#clip1_4_54)" filter="url(#filter0_dd_4_54)">
<rect width="174" height="471" transform="translate(249.989 -4.86841) rotate(26.3841)" fill="#111111"/>
<rect x="255.421" y="15.6863" width="146" height="92" transform="rotate(26.3841 255.421 15.6863)" fill="white"/>
<rect x="210.982" y="105.27" width="146" height="92" transform="rotate(26.3841 210.982 105.27)" fill="white"/>
<rect x="166.543" y="194.853" width="146" height="92" transform="rotate(26.3841 166.543 194.853)" fill="white"/>
<rect x="122.105" y="284.437" width="146" height="92" transform="rotate(26.3841 122.105 284.437)" fill="white"/>
</g>
<g clip-path="url(#clip2_4_54)" filter="url(#filter1_d_4_54)">
<rect width="174" height="471" transform="translate(-46 -76.2467) rotate(-19.3851)" fill="#111111"/>
<rect x="-27.4829" y="-65.8006" width="146" height="92" transform="rotate(-19.3851 -27.4829 -65.8006)" fill="white"/>
<rect x="5.7085" y="28.5303" width="146" height="92" transform="rotate(-19.3851 5.7085 28.5303)" fill="white"/>
<rect x="38.9001" y="122.861" width="146" height="92" transform="rotate(-19.3851 38.9001 122.861)" fill="white"/>
<rect x="72.0916" y="217.192" width="146" height="92" transform="rotate(-19.3851 72.0916 217.192)" fill="white"/>
<path d="M139.399 309.06L146.218 306.66L156.873 318.466L157.14 318.373L158.054 302.496L164.872 300.097L172.738 322.452L167.377 324.339L162.545 310.607L162.356 310.673L161.665 326.189L158.239 327.395L147.957 315.654L147.768 315.72L152.627 329.529L147.266 331.415L139.399 309.06Z" fill="white"/>
<path d="M182.089 294.039L187.584 292.105L192.658 306.525C193.244 308.192 193.351 309.786 192.978 311.307C192.602 312.822 191.81 314.171 190.602 315.357C189.392 316.535 187.83 317.461 185.917 318.134C183.981 318.815 182.173 319.076 180.491 318.915C178.807 318.747 177.348 318.189 176.114 317.241C174.878 316.286 173.967 314.975 173.38 313.308L168.307 298.888L173.813 296.951L178.721 310.901C178.993 311.673 179.405 312.3 179.959 312.784C180.52 313.266 181.172 313.568 181.916 313.691C182.659 313.814 183.442 313.73 184.265 313.441C185.088 313.151 185.747 312.727 186.243 312.168C186.745 311.607 187.064 310.963 187.2 310.236C187.336 309.51 187.269 308.761 186.997 307.989L182.089 294.039Z" fill="white"/>
<path d="M198.901 313.247L191.035 290.891L206.585 285.419L208.13 289.808L198.085 293.342L199.698 297.927L208.753 294.741L210.301 299.14L201.246 302.326L204.407 311.309L198.901 313.247Z" fill="white"/>
<path d="M214.864 282.506L222.73 304.862L217.224 306.799L209.358 284.444L214.864 282.506Z" fill="white"/>
</g>
</g>
<defs>
<filter id="filter0_dd_4_54" x="32.6831" y="-8.86841" width="381.181" height="515.262" filterUnits="userSpaceOnUse" color-interpolation-filters="sRGB">
<feFlood flood-opacity="0" result="BackgroundImageFix"/>
<feColorMatrix in="SourceAlpha" type="matrix" values="0 0 0 0 0 0 0 0 0 0 0 0 0 0 0 0 0 0 127 0" result="hardAlpha"/>
<feOffset dy="4"/>
<feGaussianBlur stdDeviation="4"/>
<feColorMatrix type="matrix" values="0 0 0 0 0.458824 0 0 0 0 0.458824 0 0 0 0 0.458824 0 0 0 0.16 0"/>
<feBlend mode="normal" in2="BackgroundImageFix" result="effect1_dropShadow_4_54"/>
<feColorMatrix in="SourceAlpha" type="matrix" values="0 0 0 0 0 0 0 0 0 0 0 0 0 0 0 0 0 0 127 0" result="hardAlpha"/>
<feOffset dy="1"/>
<feGaussianBlur stdDeviation="1"/>
<feColorMatrix type="matrix" values="0 0 0 0 0.258824 0 0 0 0 0.258824 0 0 0 0 0.258824 0 0 0 0.04 0"/>
<feBlend mode="normal" in2="effect1_dropShadow_4_54" result="effect2_dropShadow_4_54"/>
<feBlend mode="normal" in="SourceGraphic" in2="effect2_dropShadow_4_54" result="shape"/>
</filter>
<filter id="filter1_d_4_54" x="-50" y="-134" width="328.468" height="510.052" filterUnits="userSpaceOnUse" color-interpolation-filters="sRGB">
<feFlood flood-opacity="0" result="BackgroundImageFix"/>
<feColorMatrix in="SourceAlpha" type="matrix" values="0 0 0 0 0 0 0 0 0 0 0 0 0 0 0 0 0 0 127 0" result="hardAlpha"/>
<feOffset dy="4"/>
<feGaussianBlur stdDeviation="2"/>
<feComposite in2="hardAlpha" operator="out"/>
<feColorMatrix type="matrix" values="0 0 0 0 0 0 0 0 0 0 0 0 0 0 0 0 0 0 0.25 0"/>
<feBlend mode="normal" in2="BackgroundImageFix" result="effect1_dropShadow_4_54"/>
<feBlend mode="normal" in="SourceGraphic" in2="effect1_dropShadow_4_54" result="shape"/>
</filter>
<clipPath id="clip0_4_54">
<rect width="360" height="360" fill="white"/>
</clipPath>
<clipPath id="clip1_4_54">
<rect width="174" height="471" fill="white" transform="translate(249.989 -4.86841) rotate(26.3841)"/>
</clipPath>
<clipPath id="clip2_4_54">
<rect width="174" height="471" fill="white" transform="translate(-46 -76.2467) rotate(-19.3851)"/>
</clipPath>
</defs>
</svg>
